# xmcd
#
# Track frame offsets: 
#        150
#        15480
#        35496
#        58806
#        76488
#        93284
#        126195
#        153482
#        167587
#        186156
#
# Disc length: 2672 seconds
#
# Revision: 0
# Processed by: cddbd v1.5.2PL0 Copyright (c) Steve Scherf et al.
# Submitted via: ExactAudioCopy v0.95b4
#
DISCID=780a6e0a
DTITLE=Billy Marquis - The Blues and Beyond
DYEAR=1999
DGENRE=Blues
TTITLE0=Another Blues Singer
TTITLE1=Black and White
TTITLE2=Piece of Mind
TTITLE3=Walnut Street
TTITLE4=I Need You
TTITLE5=Highway 82 Blues/Battle Hymn of the Republic
TTITLE6=Her Mind Is Gone/Rain
TTITLE7=Duset Me Off
TTITLE8=Push Turns to Shove
TTITLE9=Sell My Monkey
EXTD=
EXTT0=
EXTT1=
EXTT2=
EXTT3=
EXTT4=
EXTT5=
EXTT6=
EXTT7=
EXTT8=
EXTT9=
PLAYORDER=
